<svg aria-hidden="true" style="width:0;height:0;position:absolute;overflow:hidden" xmlns="http://www.w3.org/2000/svg"><defs><symbol id="icon-drone" viewBox="0 0 32 32"><path fill="#77acf1" style="fill:var(--color1,#77acf1)" d="M14 19h4v3a1 1 0 0 1-1 1h-2a1 1 0 0 1-1-1v-3z"/><path fill="#04009a" style="fill:var(--color2,#04009a)" d="M20 32h-8a3 3 0 0 1-3-3v-8a3 3 0 0 1 3-3h8a3 3 0 0 1 3 3v8a3 3 0 0 1-3 3zm-8-12a1 1 0 0 0-1 1v8a1 1 0 0 0 1 1h8a1 1 0 0 0 1-1v-8a1 1 0 0 0-1-1z"/><path fill="#04009a" style="fill:var(--color2,#04009a)" d="M29.54 5.6 29 5.47V2h2a1 1 0 0 0 0-2h-6a1 1 0 0 0 0 2h2v3l-3.22-.81a.885.885 0 0 1-.46-.26v-.001l-2-2a2.993 2.993 0 0 0-2.149-.93H12.83a2.992 2.992 0 0 0-2.12.88l-2 2a1.052 1.052 0 0 1-.463.268l-.007.002-3.24.85v-3h2a1 1 0 0 0 0-2H1a1 1 0 0 0 0 2h2v3.47l-.54.13A3.246 3.246 0 0 0-.082 8.763a3.24 3.24 0 0 0 3.074 3.236H3v11a3 3 0 0 0 3 3 1 1 0 0 0 0-2 1 1 0 0 1-1-1v-11h3.93c.346.002.649.179.828.446l.002.004.81 1.21a3.002 3.002 0 0 0 2.499 1.34H15a1 1 0 0 0 2 0H18.931a2.998 2.998 0 0 0 2.492-1.329l.007-.011.81-1.21c.181-.271.484-.448.83-.45H27v11a1 1 0 0 1-1 1 1 1 0 0 0 0 2 3 3 0 0 0 3-3v-11a3.241 3.241 0 0 0 .562-6.375l-.022-.005zm-.79 4.4h-5.681a2.998 2.998 0 0 0-2.492 1.329l-.007.011-.81 1.21a1.002 1.002 0 0 1-.83.45h-5.86a1.002 1.002 0 0 1-.828-.446l-.002-.004-.81-1.21A3.002 3.002 0 0 0 8.931 10H3.25a1.25 1.25 0 0 1-.318-2.458l.009-.002 5.76-1.43a3.153 3.153 0 0 0 1.401-.791l-.001.001 2-2a.999.999 0 0 1 .73-.32h6.346c.275 0 .524.111.704.29l2 2c.376.371.85.644 1.379.776l.021.004 5.76 1.44a1.253 1.253 0 1 1-.296 2.489l.006.001z"/><path fill="#04009a" style="fill:var(--color2,#04009a)" d="M16 5a3 3 0 1 0 3 3 3 3 0 0 0-3-3zm0 4a1 1 0 1 1 1-1 1 1 0 0 1-1 1z"/></symbol><symbol id="icon-x-close" viewBox="0 0 32 32"><path stroke-linejoin="round" stroke-linecap="round" stroke-width="3.429" d="M24 8 8 24M8 8l16 16"/></symbol><symbol id="icon-youtube" viewBox="0 0 32 32"><path fill="#ce1312" style="fill:var(--color1,#ce1312)" d="M31.68 9.556s-.313-2.221-1.272-3.199c-1.217-1.284-2.581-1.29-3.206-1.365-4.478-.326-11.195-.326-11.195-.326h-.014s-6.717 0-11.195.326c-.626.074-1.989.08-3.207 1.364C.632 7.334.32 9.554.32 9.554S0 12.162 0 14.77v2.445c0 2.608.32 5.216.32 5.216s.312 2.221 1.271 3.198c1.218 1.284 2.817 1.244 3.529 1.378 2.56.248 10.88.324 10.88.324s6.724-.01 11.202-.336c.625-.076 1.989-.081 3.206-1.366.959-.978 1.272-3.198 1.272-3.198s.32-2.607.32-5.216V14.77c0-2.607-.32-5.216-.32-5.216zM12.696 20.18l-.001-9.055 8.646 4.543-8.645 4.512z"/></symbol><symbol id="icon-facebook" viewBox="0 0 32 32"><path fill="#1777f2" style="fill:var(--color2,#1777f2)" d="M28.09 0A3.912 3.912 0 0 1 32 3.91v24.181a3.912 3.912 0 0 1-3.91 3.91h-6.654V19.944h4.162l.792-5.164h-4.954v-3.351c0-1.413.692-2.79 2.911-2.79H26.6V4.243s-2.044-.349-3.999-.349c-4.081 0-6.747 2.473-6.747 6.95v3.936h-4.536v5.164h4.536v12.057H3.91A3.912 3.912 0 0 1 0 28.091V3.91A3.912 3.912 0 0 1 3.91 0h24.181z"/></symbol></defs></svg>