<svg aria-hidden="true" style="position: absolute; width: 0; height: 0; overflow: hidden;" version="1.1" xmlns="http://www.w3.org/2000/svg" xmlns:xlink="http://www.w3.org/1999/xlink">
<defs>
<symbol id="icon-drone" viewBox="0 0 32 32">
<path fill="#77acf1" style="fill: var(--color1, #77acf1)" d="M14 19h4v3c0 0.552-0.448 1-1 1v0h-2c-0.552 0-1-0.448-1-1v0-3z"></path>
<path fill="#04009a" style="fill: var(--color2, #04009a)" d="M20 32h-8c-1.657 0-3-1.343-3-3v0-8c0-1.657 1.343-3 3-3v0h8c1.657 0 3 1.343 3 3v0 8c0 1.657-1.343 3-3 3v0zM12 20c-0.552 0-1 0.448-1 1v0 8c0 0.552 0.448 1 1 1v0h8c0.552 0 1-0.448 1-1v0-8c0-0.552-0.448-1-1-1v0z"></path>
<path fill="#04009a" style="fill: var(--color2, #04009a)" d="M29.54 5.6l-0.54-0.13v-3.47h2c0.552 0 1-0.448 1-1s-0.448-1-1-1v0h-6c-0.552 0-1 0.448-1 1s0.448 1 1 1v0h2v3l-3.22-0.81c-0.183-0.040-0.34-0.132-0.46-0.26l-0-0.001-2-2c-0.543-0.568-1.304-0.924-2.149-0.93h-6.341c-0.828 0.001-1.578 0.337-2.12 0.88l-2 2c-0.127 0.126-0.285 0.219-0.463 0.268l-0.007 0.002-3.24 0.85v-3h2c0.552 0 1-0.448 1-1s-0.448-1-1-1v0h-6c-0.552 0-1 0.448-1 1s0.448 1 1 1v0h2v3.47l-0.54 0.13c-1.465 0.332-2.542 1.622-2.542 3.164 0 1.734 1.362 3.149 3.074 3.236l0.008 0v11c0 1.657 1.343 3 3 3v0c0.552 0 1-0.448 1-1s-0.448-1-1-1v0c-0.552 0-1-0.448-1-1v0-11h3.93c0.346 0.002 0.649 0.179 0.828 0.446l0.002 0.004 0.81 1.21c0.545 0.812 1.46 1.34 2.499 1.34 0 0 0.001 0 0.001 0h1.93c0 0.552 0.448 1 1 1s1-0.448 1-1v0h1.93c0 0 0.001 0 0.001 0 1.038 0 1.954-0.528 2.492-1.329l0.007-0.011 0.81-1.21c0.181-0.271 0.484-0.448 0.83-0.45h3.93v11c0 0.552-0.448 1-1 1v0c-0.552 0-1 0.448-1 1s0.448 1 1 1v0c1.657 0 3-1.343 3-3v0-11c1.689-0.122 3.013-1.522 3.013-3.232 0-1.517-1.043-2.791-2.451-3.143l-0.022-0.005zM28.75 10h-5.68c-0 0-0.001 0-0.001 0-1.038 0-1.954 0.528-2.492 1.329l-0.007 0.011-0.81 1.21c-0.181 0.271-0.484 0.448-0.83 0.45h-5.86c-0.346-0.002-0.649-0.179-0.828-0.446l-0.002-0.004-0.81-1.21c-0.545-0.812-1.46-1.34-2.499-1.34-0 0-0.001 0-0.001 0h-5.68c-0.689-0.002-1.246-0.561-1.246-1.25 0-0.579 0.393-1.066 0.928-1.208l0.009-0.002 5.76-1.43c0.549-0.146 1.021-0.421 1.401-0.791l-0.001 0.001 2-2c0.182-0.196 0.442-0.319 0.73-0.32h6.34c0.002 0 0.004-0 0.006-0 0.275 0 0.524 0.111 0.704 0.29l2 2c0.376 0.371 0.85 0.644 1.379 0.776l0.021 0.004 5.76 1.44c0.627 0.075 1.108 0.604 1.108 1.245 0 0.692-0.561 1.253-1.253 1.253-0.051 0-0.101-0.003-0.151-0.009l0.006 0.001z"></path>
<path fill="#04009a" style="fill: var(--color2, #04009a)" d="M16 5c-1.657 0-3 1.343-3 3s1.343 3 3 3c1.657 0 3-1.343 3-3v0c0-1.657-1.343-3-3-3v0zM16 9c-0.552 0-1-0.448-1-1s0.448-1 1-1c0.552 0 1 0.448 1 1v0c0 0.552-0.448 1-1 1v0z"></path>
</symbol>
<symbol id="icon-x-close" viewBox="0 0 32 32">
<path stroke-linejoin="round" stroke-linecap="round" stroke-miterlimit="4" stroke-width="3.4286" d="M24 8l-16 16"></path>
<path stroke-linejoin="round" stroke-linecap="round" stroke-miterlimit="4" stroke-width="3.4286" d="M8 8l16 16"></path>
</symbol>
<symbol id="icon-youtube" viewBox="0 0 32 32">
<path fill="#ce1312" style="fill: var(--color1, #ce1312)" d="M31.68 9.556c0 0-0.313-2.221-1.272-3.199-1.217-1.284-2.581-1.29-3.206-1.365-4.478-0.326-11.195-0.326-11.195-0.326h-0.014c0 0-6.717 0-11.195 0.326-0.626 0.074-1.989 0.080-3.207 1.364-0.959 0.978-1.271 3.198-1.271 3.198s-0.32 2.608-0.32 5.216v2.445c0 2.608 0.32 5.216 0.32 5.216s0.312 2.221 1.271 3.198c1.218 1.284 2.817 1.244 3.529 1.378 2.56 0.248 10.88 0.324 10.88 0.324s6.724-0.010 11.202-0.336c0.625-0.076 1.989-0.081 3.206-1.366 0.959-0.978 1.272-3.198 1.272-3.198s0.32-2.607 0.32-5.216v-2.445c0-2.607-0.32-5.216-0.32-5.216zM12.696 20.18l-0.001-9.055 8.646 4.543-8.645 4.512z"></path>
</symbol>
<symbol id="icon-facebook" viewBox="0 0 32 32">
<path fill="#1777f2" style="fill: var(--color2, #1777f2)" d="M28.090 0c2.158 0 3.91 1.752 3.91 3.91v24.181c0 2.158-1.752 3.91-3.91 3.91h-6.654v-12.057h4.162l0.792-5.164h-4.954v-3.351c0-1.413 0.692-2.79 2.911-2.79h2.253v-4.396c0 0-2.044-0.349-3.999-0.349-4.081 0-6.747 2.473-6.747 6.95v3.936h-4.536v5.164h4.536v12.057h-11.944c-2.158 0-3.91-1.752-3.91-3.91v-24.181c0-2.158 1.752-3.91 3.91-3.91h24.181z"></path>
</symbol>
</defs>
</svg>
