<svg aria-hidden="true" style="position: absolute; width: 0; height: 0; overflow: hidden;" version="1.1" xmlns="http://www.w3.org/2000/svg" xmlns:xlink="http://www.w3.org/1999/xlink">
<defs>
<symbol id="icon-drone" viewBox="0 0 32 32">
<path fill="#77acf1" style="fill: var(--color1, #77acf1)" d="M14 19h4v3c0 0.552-0.448 1-1 1v0h-2c-0.552 0-1-0.448-1-1v0-3z"></path>
<path fill="#04009a" style="fill: var(--color2, #04009a)" d="M20 32h-8c-1.657 0-3-1.343-3-3v0-8c0-1.657 1.343-3 3-3v0h8c1.657 0 3 1.343 3 3v0 8c0 1.657-1.343 3-3 3v0zM12 20c-0.552 0-1 0.448-1 1v0 8c0 0.552 0.448 1 1 1v0h8c0.552 0 1-0.448 1-1v0-8c0-0.552-0.448-1-1-1v0z"></path>
<path fill="#04009a" style="fill: var(--color2, #04009a)" d="M29.54 5.6l-0.54-0.13v-3.47h2c0.552 0 1-0.448 1-1s-0.448-1-1-1v0h-6c-0.552 0-1 0.448-1 1s0.448 1 1 1v0h2v3l-3.22-0.81c-0.183-0.040-0.34-0.132-0.46-0.26l-0-0.001-2-2c-0.543-0.568-1.304-0.924-2.149-0.93h-6.341c-0.828 0.001-1.578 0.337-2.12 0.88l-2 2c-0.127 0.126-0.285 0.219-0.463 0.268l-0.007 0.002-3.24 0.85v-3h2c0.552 0 1-0.448 1-1s-0.448-1-1-1v0h-6c-0.552 0-1 0.448-1 1s0.448 1 1 1v0h2v3.47l-0.54 0.13c-1.465 0.332-2.542 1.622-2.542 3.164 0 1.734 1.362 3.149 3.074 3.236l0.008 0v11c0 1.657 1.343 3 3 3v0c0.552 0 1-0.448 1-1s-0.448-1-1-1v0c-0.552 0-1-0.448-1-1v0-11h3.93c0.346 0.002 0.649 0.179 0.828 0.446l0.002 0.004 0.81 1.21c0.545 0.812 1.46 1.34 2.499 1.34 0 0 0.001 0 0.001 0h1.93c0 0.552 0.448 1 1 1s1-0.448 1-1v0h1.93c0 0 0.001 0 0.001 0 1.038 0 1.954-0.528 2.492-1.329l0.007-0.011 0.81-1.21c0.181-0.271 0.484-0.448 0.83-0.45h3.93v11c0 0.552-0.448 1-1 1v0c-0.552 0-1 0.448-1 1s0.448 1 1 1v0c1.657 0 3-1.343 3-3v0-11c1.689-0.122 3.013-1.522 3.013-3.232 0-1.517-1.043-2.791-2.451-3.143l-0.022-0.005zM28.75 10h-5.68c-0 0-0.001 0-0.001 0-1.038 0-1.954 0.528-2.492 1.329l-0.007 0.011-0.81 1.21c-0.181 0.271-0.484 0.448-0.83 0.45h-5.86c-0.346-0.002-0.649-0.179-0.828-0.446l-0.002-0.004-0.81-1.21c-0.545-0.812-1.46-1.34-2.499-1.34-0 0-0.001 0-0.001 0h-5.68c-0.689-0.002-1.246-0.561-1.246-1.25 0-0.579 0.393-1.066 0.928-1.208l0.009-0.002 5.76-1.43c0.549-0.146 1.021-0.421 1.401-0.791l-0.001 0.001 2-2c0.182-0.196 0.442-0.319 0.73-0.32h6.34c0.002 0 0.004-0 0.006-0 0.275 0 0.524 0.111 0.704 0.29l2 2c0.376 0.371 0.85 0.644 1.379 0.776l0.021 0.004 5.76 1.44c0.627 0.075 1.108 0.604 1.108 1.245 0 0.692-0.561 1.253-1.253 1.253-0.051 0-0.101-0.003-0.151-0.009l0.006 0.001z"></path>
<path fill="#04009a" style="fill: var(--color2, #04009a)" d="M16 5c-1.657 0-3 1.343-3 3s1.343 3 3 3c1.657 0 3-1.343 3-3v0c0-1.657-1.343-3-3-3v0zM16 9c-0.552 0-1-0.448-1-1s0.448-1 1-1c0.552 0 1 0.448 1 1v0c0 0.552-0.448 1-1 1v0z"></path>
</symbol>
<symbol id="icon-close" viewBox="0 0 32 32">
<path  style="fill: var(--color1, #e7e9fc); stroke: var(--color2, #2e2f42)" opacity="0.1" stroke="#2e2f42" stroke-linejoin="miter" stroke-linecap="butt" stroke-miterlimit="4" stroke-width="1.3333" d="M31.333 16c0 8.468-6.865 15.333-15.333 15.333s-15.333-6.865-15.333-15.333c0-8.468 6.865-15.333 15.333-15.333s15.333 6.865 15.333 15.333z"></path>
<path  style="fill: var(--color2, #2e2f42)" d="M21.333 11.741l-1.074-1.074-4.259 4.259-4.259-4.259-1.074 1.074 4.259 4.259-4.259 4.259 1.074 1.074 4.259-4.259 4.259 4.259 1.074-1.074-4.259-4.259 4.259-4.259z"></path>
</symbol>
<symbol id="icon-instagram" viewBox="0 0 32 32">
<path d="M31.693 9.465c-0.077-1.683-0.344-2.831-0.735-3.837-0.397-1.055-1.019-2.010-1.823-2.8-0.789-0.804-1.745-1.427-2.8-1.824-1.005-0.39-2.154-0.657-3.837-0.734-1.686-0.077-2.224-0.096-6.517-0.096s-4.831 0.019-6.517 0.095c-1.683 0.077-2.831 0.344-3.837 0.735-1.055 0.397-2.010 1.019-2.8 1.823-0.804 0.789-1.427 1.745-1.824 2.799-0.39 1.006-0.657 2.155-0.734 3.837-0.077 1.686-0.096 2.224-0.096 6.517s0.018 4.831 0.096 6.517c0.077 1.682 0.344 2.831 0.735 3.837 0.397 1.054 1.019 2.010 1.823 2.799 0.789 0.804 1.745 1.426 2.8 1.823 1.005 0.391 2.154 0.658 3.837 0.735 1.686 0.077 2.224 0.095 6.517 0.095s4.831-0.018 6.517-0.095c1.683-0.077 2.831-0.344 3.837-0.735 2.123-0.821 3.802-2.5 4.622-4.622 0.391-1.006 0.658-2.155 0.735-3.837 0.077-1.686 0.095-2.224 0.095-6.517s-0.018-4.831-0.095-6.517zM28.848 22.37c-0.070 1.541-0.328 2.378-0.544 2.935-0.532 1.379-1.621 2.468-3 3-0.557 0.216-1.394 0.474-2.935 0.544-1.666 0.076-2.166 0.092-6.387 0.092s-4.721-0.016-6.387-0.092c-1.541-0.070-2.378-0.328-2.935-0.544-0.686-0.254-1.307-0.658-1.817-1.183-0.525-0.51-0.929-1.131-1.183-1.817-0.216-0.557-0.474-1.394-0.544-2.935-0.076-1.667-0.092-2.166-0.092-6.387s0.016-4.72 0.092-6.387c0.071-1.541 0.328-2.378 0.544-2.935 0.254-0.687 0.658-1.308 1.183-1.818 0.51-0.525 1.131-0.929 1.818-1.182 0.557-0.217 1.394-0.474 2.935-0.544 1.666-0.076 2.166-0.092 6.387-0.092h-0c4.221 0 4.72 0.016 6.387 0.092 1.541 0.070 2.378 0.328 2.935 0.544 0.686 0.254 1.307 0.658 1.817 1.182 0.525 0.51 0.929 1.131 1.182 1.818 0.217 0.557 0.474 1.394 0.544 2.935 0.076 1.667 0.092 2.167 0.092 6.387s-0.016 4.72-0.092 6.387z"></path>
<path d="M15.982 7.865c-4.483 0-8.117 3.634-8.117 8.117s3.634 8.117 8.117 8.117c4.483 0 8.117-3.634 8.117-8.117s-3.634-8.117-8.117-8.117zM15.982 21.251c-2.909-0-5.268-2.359-5.268-5.269s2.359-5.269 5.269-5.269c2.91 0 5.269 2.359 5.269 5.269s-2.359 5.269-5.269 5.269z"></path>
<path d="M26.316 7.545c0 1.047-0.849 1.897-1.897 1.897s-1.897-0.849-1.897-1.897c0-1.048 0.849-1.897 1.897-1.897s1.897 0.849 1.897 1.897z"></path>
</symbol>
<symbol id="icon-facebook" viewBox="0 0 32 32">
<path d="M28.090 0c2.158 0 3.91 1.752 3.91 3.91v24.181c0 2.158-1.752 3.91-3.91 3.91h-6.654v-12.057h4.162l0.792-5.164h-4.954v-3.351c0-1.413 0.692-2.79 2.911-2.79h2.253v-4.396c0 0-2.044-0.349-3.999-0.349-4.081 0-6.747 2.473-6.747 6.95v3.936h-4.536v5.164h4.536v12.057h-11.944c-2.158 0-3.91-1.752-3.91-3.91v-24.181c0-2.158 1.752-3.91 3.91-3.91h24.181z"></path>
</symbol>
<symbol id="icon-youtube" viewBox="0 0 32 32">
<path d="M31.68 9.556c0 0-0.313-2.221-1.272-3.199-1.217-1.284-2.581-1.29-3.206-1.365-4.478-0.326-11.195-0.326-11.195-0.326h-0.014c0 0-6.717 0-11.195 0.326-0.626 0.074-1.989 0.080-3.207 1.364-0.959 0.978-1.271 3.198-1.271 3.198s-0.32 2.608-0.32 5.216v2.445c0 2.608 0.32 5.216 0.32 5.216s0.312 2.221 1.271 3.198c1.218 1.284 2.817 1.244 3.529 1.378 2.56 0.248 10.88 0.324 10.88 0.324s6.724-0.010 11.202-0.336c0.625-0.076 1.989-0.081 3.206-1.366 0.959-0.978 1.272-3.198 1.272-3.198s0.32-2.607 0.32-5.216v-2.445c0-2.607-0.32-5.216-0.32-5.216zM12.696 20.18l-0.001-9.055 8.646 4.543-8.645 4.512z"></path>
</symbol>
<symbol id="icon-phone" viewBox="0 0 32 32">
<path d="M20.134 20.036v0zM20.742 19.397v0zM23.964 18.95v0zM26.511 20.416v0zM27.229 25.011v0zM25.335 27.005v0zM23.568 27.951v0zM10.42 21.967v0zM4.004 9.288v0zM12.637 11.337v0zM12.846 7.591v0zM11.164 5.213v0zM7.015 4.812v0zM4.922 7.015v0zM14.751 17.408v0zM20.859 20.725l0.607-0.639-1.45-1.377-0.607 0.639 1.45 1.377zM23.465 19.816l2.547 1.466 0.998-1.733-2.547-1.466-0.998 1.733zM26.504 24.323l-1.894 1.994 1.45 1.377 1.894-1.994-1.45-1.377zM23.47 26.956c-1.913 0.189-6.906 0.028-12.325-5.677l-1.45 1.377c5.906 6.218 11.539 6.53 13.971 6.29l-0.196-1.99zM11.146 21.278c-5.168-5.441-6.035-10.031-6.143-12.044l-1.997 0.107c0.132 2.466 1.179 7.512 6.69 13.314l1.45-1.377zM12.979 12.429l0.382-0.403-1.45-1.377-0.382 0.403 1.45 1.377zM13.662 7.013l-1.681-2.378-1.633 1.155 1.681 2.378 1.633-1.155zM6.29 4.123l-2.093 2.203 1.45 1.377 2.093-2.203-1.45-1.377zM12.254 11.74c-0.725-0.689-0.726-0.688-0.727-0.687s-0.001 0.001-0.002 0.002-0.003 0.003-0.004 0.004-0.005 0.006-0.008 0.009-0.012 0.013-0.018 0.020-0.026 0.031-0.041 0.049c-0.029 0.037-0.062 0.083-0.097 0.137-0.070 0.109-0.145 0.253-0.209 0.433-0.13 0.366-0.201 0.851-0.113 1.456 0.174 1.19 0.954 2.789 2.99 4.933l1.45-1.377c-1.903-2.004-2.372-3.238-2.461-3.846-0.043-0.293 0.001-0.447 0.018-0.496 0.010-0.027 0.016-0.035 0.010-0.025-0.003 0.005-0.009 0.014-0.019 0.026-0.005 0.006-0.011 0.014-0.018 0.022-0.004 0.004-0.008 0.009-0.012 0.013-0.002 0.002-0.004 0.005-0.007 0.007-0.001 0.001-0.002 0.002-0.003 0.004s-0.002 0.002-0.002 0.002-0.002 0.002-0.727-0.687zM14.026 18.097c2.031 2.138 3.564 2.978 4.734 3.168 0.6 0.097 1.086 0.020 1.454-0.125 0.18-0.071 0.322-0.154 0.429-0.23 0.053-0.038 0.098-0.074 0.133-0.105 0.018-0.016 0.034-0.030 0.047-0.044 0.007-0.007 0.013-0.013 0.019-0.019 0.003-0.003 0.006-0.006 0.008-0.009 0.001-0.001 0.003-0.003 0.004-0.004s0.002-0.002 0.002-0.002 0.002-0.002-0.723-0.691-0.724-0.69-0.723-0.691 0.001-0.001 0.002-0.002 0.002-0.002 0.004-0.004 0.005-0.005 0.007-0.007 0.009-0.009 0.013-0.013 0.015-0.014 0.022-0.020c0.013-0.011 0.022-0.018 0.028-0.023 0.013-0.009 0.011-0.006-0.006 0.001-0.026 0.010-0.147 0.053-0.4 0.012-0.537-0.087-1.695-0.561-3.605-2.571l-1.45 1.377zM11.981 4.636c-1.351-1.911-4.056-2.234-5.691-0.513l1.45 1.377c0.697-0.734 1.924-0.676 2.608 0.29l1.633-1.155zM5.002 9.234c-0.029-0.532 0.203-1.066 0.645-1.531l-1.45-1.377c-0.714 0.752-1.258 1.797-1.192 3.015l1.997-0.107zM24.61 26.317c-0.372 0.392-0.761 0.602-1.14 0.639l0.196 1.99c0.996-0.098 1.802-0.63 2.393-1.252l-1.45-1.377zM13.362 12.026c1.29-1.358 1.381-3.484 0.3-5.013l-1.633 1.155c0.563 0.796 0.477 1.855-0.117 2.481l1.45 1.377zM26.012 21.283c1.094 0.63 1.309 2.18 0.492 3.040l1.45 1.377c1.74-1.832 1.233-4.897-0.944-6.151l-0.998 1.733zM21.467 20.086c0.514-0.541 1.315-0.663 1.998-0.269l0.998-1.733c-1.465-0.843-3.281-0.601-4.446 0.625l1.45 1.377z"></path>
</symbol>
<symbol id="icon-address" viewBox="0 0 32 32">
<path d="M16 31.65c-7.925 0-15.975-1.7-15.975-4.95 0-2.9 6.2-4.1 8.85-4.475h0.1c0.375 0 0.7 0.275 0.75 0.65 0.025 0.2-0.025 0.4-0.15 0.55s-0.3 0.275-0.5 0.3c-5.525 0.8-7.575 2.25-7.575 3 0 1.4 5.65 3.45 14.475 3.45s14.475-2.050 14.475-3.45c0-0.75-2.075-2.2-7.65-3-0.2-0.025-0.375-0.125-0.5-0.3-0.125-0.15-0.175-0.35-0.15-0.55 0.050-0.375 0.375-0.65 0.75-0.65h0.1c2.675 0.375 8.925 1.575 8.925 4.475 0.025 3.225-8 4.95-15.925 4.95zM15.475 26.35c-0.375-0.35-9.025-8.525-9.025-16.55 0-5.25 4.275-9.525 9.525-9.525s9.525 4.275 9.525 9.525c0 7.8-8.65 16.175-9.025 16.525l-0.5 0.5-0.5-0.475zM16 1.775c-4.425 0-8.025 3.6-8.025 8.025 0 6.275 6.125 13 8.025 14.925 1.925-1.975 8.050-8.825 8.050-14.925-0.025-4.4-3.625-8.025-8.050-8.025zM16 14.050c-2.5 0-4.525-2.025-4.525-4.525s2.025-4.525 4.525-4.525c2.5 0 4.525 2.025 4.525 4.525s-2.025 4.525-4.525 4.525zM16 6.5c-1.675 0-3.025 1.35-3.025 3.025s1.35 3.025 3.025 3.025c1.675 0 3.025-1.35 3.025-3.025s-1.375-3.025-3.025-3.025z"></path>
</symbol>
<symbol id="icon-email" viewBox="0 0 32 32">
<path d="M5 7h22l1 1v16l-1 1h-22l-1-1v-16l1-1zM6 10.261v12.739h20v-12.74l-10 9.091-10-9.091zM24.413 9h-16.827l8.413 7.649 8.413-7.649z"></path>
</symbol>
</defs>
</svg>

